<svg xmlns="http://www.w3.org/2000/svg" width="1200" height="750" viewBox="0 0 1200 750">
  <defs>
    <linearGradient id="gold" x1="0%" y1="0%" x2="100%" y2="100%">
      <stop offset="0%" style="stop-color:#F0B90B"/>
      <stop offset="100%" style="stop-color:#D4A208"/>
    </linearGradient>
  </defs>
  <!-- Background -->
  <rect width="1200" height="750" fill="#0B0E17" rx="12"/>
  <!-- Sidebar -->
  <rect x="0" y="0" width="220" height="750" fill="#0D1321"/>
  <rect x="220" y="0" width="1" height="750" fill="#1E293B"/>
  
  <!-- Brand -->
  <text x="110" y="38" text-anchor="middle" font-family="sans-serif" font-weight="bold" font-size="18" fill="#F0B90B">📈 基金范围</text>
  <line x1="20" y1="56" x2="200" y2="56" stroke="#1E293B" stroke-width="1"/>
  
  <!-- Nav items -->
  <rect x="10" y="72" width="200" height="34" rx="6" fill="rgba(240,185,11,0.1)"/>
  <text x="30" y="94" font-family="sans-serif" font-size="13" fill="#F0B90B" font-weight="600">📊 概览</text>
  
  <text x="30" y="134" font-family="sans-serif" font-size="13" fill="#64748B">⭐ 自选</text>
  <text x="30" y="174" font-family="sans-serif" font-size="13" fill="#64748B">💼 持仓</text>
  <text x="30" y="214" font-family="sans-serif" font-size="13" fill="#64748B">🔍 分析</text>
  <text x="30" y="254" font-family="sans-serif" font-size="13" fill="#64748B">🤖 AI 助手</text>
  
  <!-- Topbar -->
  <rect x="220" y="0" width="980" height="52" fill="rgba(13,19,33,0.95)" stroke="#1E293B" stroke-width="1"/>
  <text x="248" y="22" font-family="sans-serif" font-weight="bold" font-size="18" fill="#E2E8F0">概览</text>
  <text x="248" y="40" font-family="sans-serif" font-size="11" fill="#64748B">今日数据 · 实时估算</text>
  
  <!-- Refresh button -->
  <rect x="1080" y="12" width="100" height="28" rx="6" fill="url(#gold)"/>
  <text x="1130" y="31" text-anchor="middle" font-family="sans-serif" font-size="12" fill="#FFF">🔄 刷新数据</text>
  
  <!-- Stats cards -->
  <rect x="240" y="68" width="170" height="64" rx="8" fill="#131A2B" stroke="#1E293B" stroke-width="1"/>
  <text x="260" y="98" font-family="sans-serif" font-weight="bold" font-size="20" fill="#E2E8F0">¥3,885</text>
  <text x="260" y="118" font-family="sans-serif" font-size="11" fill="#64748B">总资产</text>
  
  <rect x="422" y="68" width="170" height="64" rx="8" fill="#131A2B" stroke="#1E293B" stroke-width="1"/>
  <text x="442" y="98" font-family="sans-serif" font-weight="bold" font-size="20" fill="#F04444">+¥345.71</text>
  <text x="442" y="118" font-family="sans-serif" font-size="11" fill="#64748B">累计收益</text>
  
  <rect x="604" y="68" width="170" height="64" rx="8" fill="#131A2B" stroke="#1E293B" stroke-width="1"/>
  <text x="624" y="98" font-family="sans-serif" font-weight="bold" font-size="20" fill="#F04444">+¥219.33</text>
  <text x="624" y="118" font-family="sans-serif" font-size="11" fill="#64748B">昨日收益</text>
  
  <rect x="786" y="68" width="170" height="64" rx="8" fill="#131A2B" stroke="#1E293B" stroke-width="1"/>
  <text x="806" y="98" font-family="sans-serif" font-weight="bold" font-size="20" fill="#E2E8F0">5</text>
  <text x="806" y="118" font-family="sans-serif" font-size="11" fill="#64748B">持仓数量</text>
  
  <!-- Portfolio History Chart Card -->
  <rect x="240" y="148" width="716" height="160" rx="8" fill="#131A2B" stroke="#1E293B" stroke-width="1"/>
  <text x="260" y="174" font-family="sans-serif" font-weight="bold" font-size="14" fill="#E2E8F0">📈 组合历史走势</text>
  
  <!-- Chart area -->
  <rect x="260" y="190" width="676" height="100" rx="4" fill="#0B0E17"/>
  
  <!-- Chart grid lines -->
  <line x1="260" y1="210" x2="936" y2="210" stroke="#1E293B" stroke-width="0.5"/>
  <line x1="260" y1="230" x2="936" y2="230" stroke="#1E293B" stroke-width="0.5"/>
  <line x1="260" y1="250" x2="936" y2="250" stroke="#1E293B" stroke-width="0.5"/>
  <line x1="260" y1="270" x2="936" y2="270" stroke="#1E293B" stroke-width="0.5"/>
  
  <!-- Value line (golden curve) -->
  <path d="M280,270 Q320,260 360,250 Q400,240 440,235 Q480,220 520,225 Q560,200 600,210 Q640,190 680,195 Q720,175 760,180 Q800,165 840,170 Q880,155 920,160" 
        stroke="url(#gold)" stroke-width="2.5" fill="none"/>
  
  <!-- Cost line (gray dashed) -->
  <line x1="280" y1="220" x2="920" y2="220" stroke="#64748B" stroke-width="1.5" stroke-dasharray="6,4"/>
  
  <!-- Chart legend -->
  <rect x="260" y="278" width="12" height="3" rx="1.5" fill="url(#gold)"/>
  <text x="276" y="282" font-family="sans-serif" font-size="10" fill="#94A3B8">组合市值</text>
  <line x1="340" y1="280" x2="352" y2="280" stroke="#64748B" stroke-width="1.5" stroke-dasharray="4,3"/>
  <text x="356" y="282" font-family="sans-serif" font-size="10" fill="#94A3B8">累计投入</text>
  
  <!-- Period buttons -->
  <rect x="810" y="158" width="32" height="22" rx="4" fill="#1E293B"/>
  <text x="826" y="173" text-anchor="middle" font-family="sans-serif" font-size="10" fill="#94A3B8">1月</text>
  <rect x="846" y="158" width="32" height="22" rx="4" fill="#1E293B"/>
  <text x="862" y="173" text-anchor="middle" font-family="sans-serif" font-size="10" fill="#94A3B8">3月</text>
  <rect x="882" y="158" width="32" height="22" rx="4" fill="#1E293B"/>
  <text x="898" y="173" text-anchor="middle" font-family="sans-serif" font-size="10" fill="#94A3B8">6月</text>
  <rect x="918" y="158" width="32" height="22" rx="4" fill="url(#gold)"/>
  <text x="934" y="173" text-anchor="middle" font-family="sans-serif" font-size="10" fill="#FFF" font-weight="bold">1年</text>
  
  <!-- Holdings Table -->
  <rect x="240" y="324" width="716" height="280" rx="8" fill="#131A2B" stroke="#1E293B" stroke-width="1"/>
  <text x="260" y="350" font-family="sans-serif" font-weight="bold" font-size="14" fill="#E2E8F0">📋 持仓明细</text>
  
  <!-- Table header -->
  <rect x="240" y="360" width="716" height="32" fill="#0B0E17"/>
  <text x="260" y="380" font-family="sans-serif" font-size="11" fill="#64748B" font-weight="bold">基金名称</text>
  <text x="460" y="380" font-family="sans-serif" font-size="11" fill="#64748B" font-weight="bold">可用份额</text>
  <text x="580" y="380" font-family="sans-serif" font-size="11" fill="#64748B" font-weight="bold">持仓市值</text>
  <text x="700" y="380" font-family="sans-serif" font-size="11" fill="#64748B" font-weight="bold">收益</text>
  <text x="800" y="380" font-family="sans-serif" font-size="11" fill="#64748B" font-weight="bold">收益率</text>
  
  <line x1="240" y1="392" x2="956" y2="392" stroke="#1E293B" stroke-width="1"/>
  
  <!-- Row 1 -->
  <text x="260" y="416" font-family="sans-serif" font-size="13" fill="#E2E8F0">易方达信息产业混合A</text>
  <text x="460" y="416" font-family="sans-serif" font-size="13" fill="#94A3B8">114.43</text>
  <text x="590" y="416" font-family="sans-serif" font-size="13" fill="#F04444">¥986.42</text>
  <text x="710" y="416" font-family="sans-serif" font-size="13" fill="#F04444" font-weight="bold">+¥100.47</text>
  <rect x="800" y="406" width="56" height="20" rx="4" fill="#2D0A0A"/>
  <text x="828" y="420" text-anchor="middle" font-family="sans-serif" font-size="11" fill="#F04444">+10.2%</text>
  
  <!-- Row 2 -->
  <text x="260" y="448" font-family="sans-serif" font-size="13" fill="#E2E8F0">永赢科技智选混合A</text>
  <text x="460" y="448" font-family="sans-serif" font-size="13" fill="#94A3B8">189.79</text>
  <text x="590" y="448" font-family="sans-serif" font-size="13" fill="#F04444">¥1,136.72</text>
  <text x="710" y="448" font-family="sans-serif" font-size="13" fill="#F04444" font-weight="bold">+¥101.35</text>
  <rect x="800" y="438" width="56" height="20" rx="4" fill="#2D0A0A"/>
  <text x="828" y="452" text-anchor="middle" font-family="sans-serif" font-size="11" fill="#F04444">+9.8%</text>

  <!-- Row 3 -->
  <text x="260" y="480" font-family="sans-serif" font-size="13" fill="#E2E8F0">基金 022364</text>
  <text x="460" y="480" font-family="sans-serif" font-size="13" fill="#94A3B8">208.47</text>
  <text x="590" y="480" font-family="sans-serif" font-size="13" fill="#F04444">¥1,258.93</text>
  <text x="710" y="480" font-family="sans-serif" font-size="13" fill="#F04444" font-weight="bold">+¥135.46</text>
  <rect x="800" y="470" width="56" height="20" rx="4" fill="#2D0A0A"/>
  <text x="828" y="484" text-anchor="middle" font-family="sans-serif" font-size="11" fill="#F04444">+12.1%</text>

  <!-- Row 4 -->
  <text x="260" y="512" font-family="sans-serif" font-size="13" fill="#E2E8F0">易方达全球成长精选A</text>
  <text x="460" y="512" font-family="sans-serif" font-size="13" fill="#94A3B8">46.98</text>
  <text x="590" y="512" font-family="sans-serif" font-size="13" fill="#F04444">¥214.08</text>
  <text x="710" y="512" font-family="sans-serif" font-size="13" fill="#F04444" font-weight="bold">+¥4.08</text>
  <rect x="800" y="502" width="56" height="20" rx="4" fill="#2D0A0A"/>
  <text x="828" y="516" text-anchor="middle" font-family="sans-serif" font-size="11" fill="#F04444">+2.0%</text>

  <!-- Row 5 -->
  <text x="260" y="544" font-family="sans-serif" font-size="13" fill="#E2E8F0">易方达全球成长精选C</text>
  <text x="460" y="544" font-family="sans-serif" font-size="13" fill="#94A3B8">47.95</text>
  <text x="590" y="544" font-family="sans-serif" font-size="13" fill="#F04444">¥214.35</text>
  <text x="710" y="544" font-family="sans-serif" font-size="13" fill="#F04444" font-weight="bold">+¥4.35</text>
  <rect x="800" y="534" width="56" height="20" rx="4" fill="#2D0A0A"/>
  <text x="828" y="548" text-anchor="middle" font-family="sans-serif" font-size="11" fill="#F04444">+2.1%</text>

  <!-- Footer -->
  <text x="260" y="620" font-family="sans-serif" font-size="11" fill="#64748B">最后更新: 2026-06-16 13:30</text>
  
  <!-- Status bar -->
  <rect x="0" y="730" width="1200" height="20" fill="#0D1321"/>
  <text x="590" y="744" text-anchor="middle" font-family="sans-serif" font-size="10" fill="#64748B">✨ 数据驱动决策 · 让每一笔投资都有据可依</text>
</svg>
